<?xml version="1.0" encoding="utf-8"?>
<!-- Generator: Adobe Illustrator 23.0.4, SVG Export Plug-In . SVG Version: 6.00 Build 0)  -->
<svg version="1.1" id="Layer_1" xmlns="http://www.w3.org/2000/svg" xmlns:xlink="http://www.w3.org/1999/xlink" x="0px" y="0px"
	 viewBox="0 0 53.5 115.94" style="enable-background:new 0 0 53.5 115.94;" xml:space="preserve">
<style type="text/css">
	.st0{fill:#2F3347;}
	.st1{fill:#4468CC;}
	.st2{fill:#FFFFFF;}
</style>
<g>
	<g>
		<path class="st0" d="M27.29,4.9l12.55,19.61c0.05,0.07,0.06,0.16,0.03,0.24L27.28,62.67L14.51,24.74
			c-0.02-0.08-0.01-0.16,0.03-0.23L27.29,4.9 M27.3,0c-0.34,0-0.67,0.16-0.88,0.48L11.9,22.83c-0.54,0.86-0.68,1.92-0.36,2.89
			l15.43,45.86c0.05,0.15,0.19,0.23,0.32,0.23c0.13,0,0.27-0.08,0.32-0.23l15.22-45.85c0.32-0.98,0.19-2.05-0.36-2.92L28.17,0.48
			C27.97,0.16,27.63,0,27.3,0L27.3,0z"/>
		<path class="st1" d="M44.25,28.1L28.5,75.16l23.42-36.71c0.16-0.25,0.16-0.58,0-0.83l-6.29-9.69
			C45.27,27.39,44.45,27.5,44.25,28.1z"/>
		<path class="st1" d="M10.19,27.9l15.75,47.06L2.53,38.25c-0.16-0.25-0.16-0.58,0-0.83l6.29-9.69C9.17,27.19,9.99,27.3,10.19,27.9z
			"/>
	</g>
	<g>
		<path class="st0" d="M0,94.17h5.2l5.6,15.08l5.6-15.08h5.08l-8.65,21.56H8.65L0,94.17z"/>
		<path class="st0" d="M24.99,94.17h4.71v21.41h-4.71V94.17z"/>
		<path class="st0" d="M33.1,104.93v-0.06c0-6.09,4.74-11.07,11.22-11.07c3.85,0,6.18,1.04,8.41,2.94l-2.97,3.58
			c-1.65-1.38-3.12-2.17-5.6-2.17c-3.42,0-6.15,3.03-6.15,6.67v0.06c0,3.91,2.69,6.79,6.48,6.79c1.71,0,3.24-0.43,4.43-1.28v-3.06
			H44.2v-4.07h9.3v9.3c-2.2,1.87-5.23,3.39-9.14,3.39C37.69,115.94,33.1,111.26,33.1,104.93z"/>
	</g>
</g>
</svg>
