<?xml version="1.0" encoding="utf-8"?>
<!-- Generator: Adobe Illustrator 23.0.4, SVG Export Plug-In . SVG Version: 6.00 Build 0)  -->
<svg version="1.1" id="Layer_1" xmlns="http://www.w3.org/2000/svg" xmlns:xlink="http://www.w3.org/1999/xlink" x="0px" y="0px"
	 viewBox="0 0 164.97 75.16" style="enable-background:new 0 0 164.97 75.16;" xml:space="preserve">
<style type="text/css">
	.st0{fill:#2F3347;}
	.st1{fill:#4468CC;}
	.st2{fill:#FFFFFF;}
</style>
<g>
	<g>
		<path class="st2" d="M24.01,0.48L9.49,22.83c-0.54,0.86-0.68,1.92-0.36,2.89l15.43,45.86c0.1,0.31,0.54,0.31,0.64,0l15.22-45.85
			c0.32-0.98,0.19-2.05-0.36-2.92L25.76,0.48C25.35-0.16,24.42-0.16,24.01,0.48z"/>
		<path class="st1" d="M41.84,28.1L26.09,75.16L49.5,38.45c0.16-0.25,0.16-0.58,0-0.83l-6.29-9.69
			C42.86,27.39,42.04,27.5,41.84,28.1z"/>
		<path class="st1" d="M7.78,27.9l15.75,47.06L0.12,38.25c-0.16-0.25-0.16-0.58,0-0.83l6.29-9.69C6.77,27.19,7.58,27.3,7.78,27.9z"
			/>
	</g>
	<g>
		<path class="st2" d="M64.45,27.88h5.2l5.6,15.08l5.6-15.08h5.08l-8.65,21.56H73.1L64.45,27.88z"/>
		<path class="st2" d="M89.43,27.88h4.71v21.41h-4.71V27.88z"/>
		<path class="st2" d="M97.55,38.64v-0.06c0-6.09,4.74-11.07,11.22-11.07c3.85,0,6.18,1.04,8.41,2.94l-2.97,3.58
			c-1.65-1.38-3.12-2.17-5.6-2.17c-3.42,0-6.15,3.03-6.15,6.67v0.06c0,3.91,2.69,6.79,6.48,6.79c1.71,0,3.24-0.43,4.43-1.28v-3.06
			h-4.74v-4.07h9.3v9.3c-2.2,1.87-5.23,3.39-9.14,3.39C102.13,49.65,97.55,44.97,97.55,38.64z"/>
		<path class="st2" d="M120.52,38.64v-0.06c0-6.09,4.8-11.07,11.41-11.07c6.61,0,11.34,4.92,11.34,11.01v0.06
			c0,6.08-4.8,11.07-11.41,11.07C125.26,49.65,120.52,44.73,120.52,38.64z M138.35,38.64v-0.06c0-3.67-2.69-6.73-6.48-6.73
			c-3.79,0-6.42,3-6.42,6.67v0.06c0,3.67,2.69,6.73,6.48,6.73S138.35,42.31,138.35,38.64z"/>
		<path class="st2" d="M146.47,27.88h9.79c2.72,0,4.83,0.76,6.24,2.17c1.19,1.19,1.83,2.87,1.83,4.89V35c0,3.46-1.87,5.63-4.59,6.64
			l5.23,7.64h-5.5l-4.59-6.85h-3.7v6.85h-4.71V27.88z M155.95,38.28c2.29,0,3.61-1.22,3.61-3.03v-0.06c0-2.02-1.41-3.06-3.7-3.06
			h-4.68v6.15H155.95z"/>
	</g>
</g>
</svg>
