<?xml version="1.0" encoding="utf-8"?>
<!-- Generator: Adobe Illustrator 23.0.4, SVG Export Plug-In . SVG Version: 6.00 Build 0)  -->
<svg version="1.1" id="Layer_1" xmlns="http://www.w3.org/2000/svg" xmlns:xlink="http://www.w3.org/1999/xlink" x="0px" y="0px"
	 viewBox="0 0 165 153" style="enable-background:new 0 0 165 153;" xml:space="preserve">
<style type="text/css">
	.st0{fill:#2F3347;}
	.st1{fill:#4468CC;}
	.st2{fill:#FFFFFF;}
</style>
<g>
	<g>
		<path class="st0" d="M82.55,21.56L68.02,43.9c-0.54,0.86-0.68,1.92-0.36,2.89L83.1,92.66c0.1,0.31,0.54,0.31,0.64,0l15.22-45.85
			c0.32-0.98,0.19-2.05-0.36-2.92l-14.3-22.34C83.89,20.91,82.95,20.91,82.55,21.56z"/>
		<path class="st1" d="M100.37,49.18L84.62,96.24l23.42-36.71c0.16-0.25,0.16-0.58,0-0.83L101.74,49
			C101.39,48.47,100.57,48.57,100.37,49.18z"/>
		<path class="st1" d="M66.32,48.98l15.75,47.06L58.65,59.33c-0.16-0.25-0.16-0.58,0-0.83l6.29-9.69
			C65.3,48.27,66.11,48.37,66.32,48.98z"/>
	</g>
	<g>
		<path class="st0" d="M32.45,115.75h5.2l5.6,15.08l5.6-15.08h5.08l-8.65,21.56H41.1L32.45,115.75z"/>
		<path class="st0" d="M57.43,115.75h4.71v21.41h-4.71V115.75z"/>
		<path class="st0" d="M65.55,126.52v-0.06c0-6.09,4.74-11.07,11.22-11.07c3.85,0,6.18,1.04,8.41,2.94l-2.97,3.58
			c-1.65-1.38-3.12-2.17-5.6-2.17c-3.42,0-6.15,3.03-6.15,6.67v0.06c0,3.91,2.69,6.79,6.48,6.79c1.71,0,3.24-0.43,4.43-1.28v-3.06
			h-4.74v-4.07h9.3v9.3c-2.2,1.87-5.23,3.39-9.14,3.39C70.13,137.53,65.55,132.85,65.55,126.52z"/>
		<path class="st0" d="M88.52,126.52v-0.06c0-6.09,4.8-11.07,11.41-11.07c6.61,0,11.34,4.92,11.34,11.01v0.06
			c0,6.08-4.8,11.07-11.41,11.07C93.26,137.53,88.52,132.6,88.52,126.52z M106.35,126.52v-0.06c0-3.67-2.69-6.73-6.48-6.73
			c-3.79,0-6.42,3-6.42,6.67v0.06c0,3.67,2.69,6.73,6.48,6.73S106.35,130.19,106.35,126.52z"/>
		<path class="st0" d="M114.47,115.75h9.79c2.72,0,4.83,0.76,6.24,2.17c1.19,1.19,1.83,2.88,1.83,4.89v0.06
			c0,3.46-1.87,5.63-4.59,6.64l5.23,7.64h-5.5l-4.59-6.85h-3.7v6.85h-4.71V115.75z M123.95,126.15c2.29,0,3.61-1.22,3.61-3.03v-0.06
			c0-2.02-1.41-3.06-3.7-3.06h-4.68v6.15H123.95z"/>
	</g>
</g>
</svg>
