<?xml version="1.0" encoding="utf-8"?>
<!-- Generator: Adobe Illustrator 23.0.4, SVG Export Plug-In . SVG Version: 6.00 Build 0)  -->
<svg version="1.1" id="Layer_1" xmlns="http://www.w3.org/2000/svg" xmlns:xlink="http://www.w3.org/1999/xlink" x="0px" y="0px"
	 viewBox="0 0 101.94 137.99" style="enable-background:new 0 0 101.94 137.99;" xml:space="preserve">
<style type="text/css">
	.st0{fill:#2F3347;}
	.st1{fill:#4468CC;}
	.st2{fill:#FFFFFF;}
</style>
<g>
	<g>
		<path class="st0" d="M50.17,14.02L35.65,36.37c-0.54,0.86-0.68,1.92-0.36,2.89l15.43,45.86c0.1,0.31,0.54,0.31,0.64,0l15.22-45.85
			c0.32-0.98,0.19-2.05-0.36-2.92l-14.3-22.34C51.51,13.38,50.58,13.38,50.17,14.02z"/>
		<path class="st1" d="M68,41.64L52.25,88.7l23.42-36.71c0.16-0.25,0.16-0.58,0-0.83l-6.29-9.69C69.02,40.93,68.2,41.03,68,41.64z"
			/>
		<path class="st1" d="M33.94,41.44L49.7,88.5L26.28,51.79c-0.16-0.25-0.16-0.58,0-0.83l6.29-9.69
			C32.93,40.73,33.74,40.83,33.94,41.44z"/>
	</g>
	<g>
		<path class="st0" d="M0.07,116.22h5.2l5.6,15.08l5.6-15.08h5.08l-8.65,21.56H8.73L0.07,116.22z"/>
		<path class="st0" d="M25.06,116.22h4.71v21.41h-4.71V116.22z"/>
		<path class="st0" d="M33.18,126.98v-0.06c0-6.09,4.74-11.07,11.22-11.07c3.85,0,6.18,1.04,8.41,2.94l-2.97,3.58
			c-1.65-1.38-3.12-2.17-5.6-2.17c-3.42,0-6.15,3.03-6.15,6.67v0.06c0,3.91,2.69,6.79,6.48,6.79c1.71,0,3.24-0.43,4.43-1.28v-3.06
			h-4.74v-4.07h9.3v9.3c-2.2,1.87-5.23,3.39-9.14,3.39C37.76,137.99,33.18,133.31,33.18,126.98z"/>
		<path class="st0" d="M56.15,126.98v-0.06c0-6.09,4.8-11.07,11.41-11.07c6.61,0,11.34,4.92,11.34,11.01v0.06
			c0,6.08-4.8,11.07-11.41,11.07C60.89,137.99,56.15,133.07,56.15,126.98z M73.98,126.98v-0.06c0-3.67-2.69-6.73-6.48-6.73
			c-3.79,0-6.42,3-6.42,6.67v0.06c0,3.67,2.69,6.73,6.48,6.73C71.35,133.65,73.98,130.65,73.98,126.98z"/>
		<path class="st0" d="M82.1,116.22h9.79c2.72,0,4.83,0.76,6.24,2.17c1.19,1.19,1.83,2.88,1.83,4.89v0.06
			c0,3.46-1.87,5.63-4.59,6.64l5.23,7.64h-5.5l-4.59-6.85h-3.7v6.85H82.1V116.22z M91.57,126.62c2.29,0,3.61-1.22,3.61-3.03v-0.06
			c0-2.02-1.41-3.06-3.7-3.06H86.8v6.15H91.57z"/>
	</g>
	<path class="st0" d="M50.97,3.91c12.57,0,24.39,4.9,33.28,13.78S98.03,38.4,98.03,50.97s-4.9,24.39-13.78,33.28
		S63.54,98.03,50.97,98.03s-24.39-4.9-33.28-13.78S3.91,63.54,3.91,50.97S8.81,26.58,17.7,17.7S38.4,3.91,50.97,3.91 M50.97,0
		C22.82,0,0,22.82,0,50.97c0,28.15,22.82,50.97,50.97,50.97c28.15,0,50.97-22.82,50.97-50.97C101.94,22.82,79.12,0,50.97,0L50.97,0z
		"/>
</g>
</svg>
