<?xml version="1.0" encoding="utf-8"?>
<!-- Generator: Adobe Illustrator 23.0.4, SVG Export Plug-In . SVG Version: 6.00 Build 0)  -->
<svg version="1.1" id="Layer_1" xmlns="http://www.w3.org/2000/svg" xmlns:xlink="http://www.w3.org/1999/xlink" x="0px" y="0px"
	 viewBox="0 0 164.97 75.16" style="enable-background:new 0 0 164.97 75.16;" xml:space="preserve">
<style type="text/css">
	.st0{fill:#2F3347;}
	.st1{fill:#4468CC;}
	.st2{fill:#FFFFFF;}
</style>
<g>
	<g>
		<path class="st2" d="M65.45,60.25l0.84-1.01c0.58,0.48,1.19,0.79,1.93,0.79c0.58,0,0.93-0.23,0.93-0.61V59.4
			c0-0.36-0.22-0.54-1.3-0.82c-1.3-0.33-2.14-0.69-2.14-1.98v-0.02c0-1.17,0.94-1.95,2.26-1.95c0.94,0,1.75,0.3,2.4,0.82l-0.74,1.07
			c-0.57-0.4-1.14-0.64-1.68-0.64s-0.83,0.25-0.83,0.56v0.02c0,0.42,0.28,0.56,1.39,0.85c1.31,0.34,2.05,0.81,2.05,1.94v0.02
			c0,1.28-0.98,2-2.37,2C67.21,61.28,66.22,60.94,65.45,60.25z"/>
		<path class="st2" d="M73.16,56.04H71.2v-1.31h5.35v1.31h-1.97v5.15h-1.42V56.04z"/>
		<path class="st2" d="M78.78,54.68h1.31l2.77,6.51h-1.49l-0.59-1.45h-2.73l-0.59,1.45h-1.45L78.78,54.68z M80.27,58.49l-0.86-2.1
			l-0.86,2.1H80.27z"/>
		<path class="st2" d="M83.58,54.73h3c0.74,0,1.32,0.2,1.69,0.57c0.3,0.29,0.44,0.66,0.44,1.1v0.02c0,0.73-0.39,1.13-0.85,1.39
			c0.75,0.29,1.21,0.72,1.21,1.59v0.02c0,1.18-0.96,1.77-2.42,1.77h-3.07V54.73z M86.27,57.34c0.63,0,1.03-0.2,1.03-0.68v-0.02
			c0-0.42-0.33-0.67-0.93-0.67h-1.4v1.37H86.27z M86.65,59.95c0.63,0,1.01-0.22,1.01-0.7v-0.02c0-0.43-0.32-0.7-1.05-0.7h-1.64v1.42
			H86.65z"/>
		<path class="st2" d="M90.11,54.73h1.42v5.17h3.22v1.29h-4.64V54.73z"/>
		<path class="st2" d="M95.57,54.73h4.87v1.26h-3.46v1.31h3.05v1.26h-3.05v1.36h3.51v1.26h-4.92V54.73z"/>
		<path class="st2" d="M105.02,57.98v-0.02c0-1.84,1.38-3.34,3.37-3.34c1.22,0,1.95,0.41,2.55,1l-0.9,1.04
			c-0.5-0.45-1.01-0.73-1.65-0.73c-1.09,0-1.87,0.9-1.87,2.01v0.02c0,1.11,0.77,2.03,1.87,2.03c0.74,0,1.19-0.29,1.7-0.76l0.91,0.91
			c-0.67,0.71-1.4,1.15-2.65,1.15C106.43,61.3,105.02,59.83,105.02,57.98z"/>
		<path class="st2" d="M111.5,57.98v-0.02c0-1.84,1.45-3.34,3.44-3.34s3.42,1.49,3.42,3.32v0.02c0,1.84-1.45,3.34-3.44,3.34
			S111.5,59.82,111.5,57.98z M116.88,57.98v-0.02c0-1.11-0.81-2.03-1.96-2.03s-1.94,0.9-1.94,2.01v0.02c0,1.11,0.81,2.03,1.96,2.03
			S116.88,59.09,116.88,57.98z"/>
		<path class="st2" d="M119.53,54.73h1.42v6.46h-1.42V54.73z"/>
		<path class="st2" d="M122.35,54.73h1.31l3.03,3.98v-3.98h1.4v6.46h-1.21l-3.13-4.11v4.11h-1.4V54.73z"/>
	</g>
	<g>
		<path class="st2" d="M24.01,0.48L9.49,22.83c-0.54,0.86-0.68,1.92-0.36,2.89l15.43,45.86c0.1,0.31,0.54,0.31,0.64,0l15.22-45.85
			c0.32-0.98,0.19-2.05-0.36-2.92L25.76,0.48C25.35-0.16,24.42-0.16,24.01,0.48z"/>
		<path class="st1" d="M41.84,28.1L26.09,75.16L49.5,38.45c0.16-0.25,0.16-0.58,0-0.83l-6.29-9.69
			C42.86,27.39,42.04,27.5,41.84,28.1z"/>
		<path class="st1" d="M7.78,27.9l15.75,47.06L0.12,38.25c-0.16-0.25-0.16-0.58,0-0.83l6.29-9.69C6.77,27.19,7.58,27.3,7.78,27.9z"
			/>
	</g>
	<g>
		<path class="st2" d="M64.45,27.88h5.2l5.6,15.08l5.6-15.08h5.08l-8.65,21.56H73.1L64.45,27.88z"/>
		<path class="st2" d="M89.43,27.88h4.71v21.41h-4.71V27.88z"/>
		<path class="st2" d="M97.55,38.64v-0.06c0-6.09,4.74-11.07,11.22-11.07c3.85,0,6.18,1.04,8.41,2.94l-2.97,3.58
			c-1.65-1.38-3.12-2.17-5.6-2.17c-3.42,0-6.15,3.03-6.15,6.67v0.06c0,3.91,2.69,6.79,6.48,6.79c1.71,0,3.24-0.43,4.43-1.28v-3.06
			h-4.74v-4.07h9.3v9.3c-2.2,1.87-5.23,3.39-9.14,3.39C102.13,49.65,97.55,44.97,97.55,38.64z"/>
		<path class="st2" d="M120.52,38.64v-0.06c0-6.09,4.8-11.07,11.41-11.07c6.61,0,11.34,4.92,11.34,11.01v0.06
			c0,6.08-4.8,11.07-11.41,11.07C125.26,49.65,120.52,44.73,120.52,38.64z M138.35,38.64v-0.06c0-3.67-2.69-6.73-6.48-6.73
			c-3.79,0-6.42,3-6.42,6.67v0.06c0,3.67,2.69,6.73,6.48,6.73S138.35,42.31,138.35,38.64z"/>
		<path class="st2" d="M146.47,27.88h9.79c2.72,0,4.83,0.76,6.24,2.17c1.19,1.19,1.83,2.87,1.83,4.89V35c0,3.46-1.87,5.63-4.59,6.64
			l5.23,7.64h-5.5l-4.59-6.85h-3.7v6.85h-4.71V27.88z M155.95,38.28c2.29,0,3.61-1.22,3.61-3.03v-0.06c0-2.02-1.41-3.06-3.7-3.06
			h-4.68v6.15H155.95z"/>
	</g>
</g>
</svg>
